<svg xmlns="http://www.w3.org/2000/svg" viewBox="0 0 200 200" width="200" height="200">
  <defs>
    <linearGradient id="bgGrad" x1="0%" y1="0%" x2="100%" y2="100%">
      <stop offset="0%" style="stop-color:#0052FF;stop-opacity:1" />
      <stop offset="100%" style="stop-color:#87CEEB;stop-opacity:1" />
    </linearGradient>
  </defs>
  <!-- Background -->
  <rect width="200" height="200" rx="40" fill="url(#bgGrad)"/>
  <!-- Pixel Grid Pattern -->
  <g fill="#ffffff" opacity="0.9">
    <!-- Row 1 -->
    <rect x="50" y="50" width="20" height="20"/>
    <rect x="90" y="50" width="20" height="20"/>
    <rect x="130" y="50" width="20" height="20"/>
    <!-- Row 2 -->
    <rect x="70" y="70" width="20" height="20"/>
    <rect x="110" y="70" width="20" height="20"/>
    <!-- Row 3 -->
    <rect x="50" y="90" width="20" height="20"/>
    <rect x="90" y="90" width="20" height="20"/>
    <rect x="130" y="90" width="20" height="20"/>
    <!-- Row 4 -->
    <rect x="70" y="110" width="20" height="20"/>
    <rect x="110" y="110" width="20" height="20"/>
    <!-- Row 5 -->
    <rect x="50" y="130" width="20" height="20"/>
    <rect x="90" y="130" width="20" height="20"/>
    <rect x="130" y="130" width="20" height="20"/>
  </g>
</svg>

